<svg xmlns="http://www.w3.org/2000/svg" width="40.492px" height="40.491px" viewBox="0 0 60.492 60.491"><g transform="translate(1 1)"><g transform="translate(0)"><path d="M1062.943,7463.372v-22.811h-7.535v-8.58h7.6v-7.214s-.488-10.139,10.431-10.722c6.532-.1,7.8-.1,7.8-.1v8.091s-9.164-.877-9.164,3.607v6.336h8.676l-1.073,8.676h-7.6v22.812h15.348a2.785,2.785,0,0,0,2.785-2.785v-52.922a2.784,2.784,0,0,0-2.785-2.784H1034.5a2.784,2.784,0,0,0-2.785,2.784v52.922a2.785,2.785,0,0,0,2.785,2.785h28.439Z" transform="translate(-1031.719 -7404.979)" fill="none" stroke="#000" stroke-miterlimit="10" stroke-width="2"/></g></g></svg>